<svg xmlns="http://www.w3.org/2000/svg" viewBox="0 0 64 64" role="img" aria-label="COOT Ai">
  <defs>
    <linearGradient id="frame" x1="0%" y1="0%" x2="100%" y2="100%">
      <stop offset="0%" stop-color="#7dd3fc"/>
      <stop offset="100%" stop-color="#38bdf8"/>
    </linearGradient>
  </defs>
  <path fill="url(#frame)" d="M18 8h28l8 10v28l-8 10H18l-8-10V18l8-10zm4 6-6 8v28l6 8h20l6-8V22l-6-8H22z"/>
  <!-- 내부 검정 면 제거: 페이지 배경이 비치도록(투명) -->
  <ellipse cx="32" cy="34" rx="12" ry="14" fill="#fafafa"/>
  <ellipse cx="27" cy="32" rx="2.2" ry="3" fill="#1e3a8a"/>
  <ellipse cx="37" cy="32" rx="2.2" ry="3" fill="#1e3a8a"/>
  <circle cx="27.6" cy="31.2" r="0.7" fill="#fff"/>
  <circle cx="37.6" cy="31.2" r="0.7" fill="#fff"/>
  <ellipse cx="26" cy="36" rx="2" ry="1.2" fill="#fda4af" opacity="0.85"/>
  <ellipse cx="38" cy="36" rx="2" ry="1.2" fill="#fda4af" opacity="0.85"/>
  <path fill="none" stroke="#0f172a" stroke-width="1.2" stroke-linecap="round" d="M26 40c2 3 10 3 12 0"/>
  <path fill="#ef4444" d="M30 41h4v2h-4z"/>
  <path fill="#facc15" d="M30 6l2 6h4l-3 5-3-3-3 3-3-5h4l2-6z"/>
</svg>
